<?xml version="1.0" encoding="UTF-8"?>
<svg width="400" height="300" viewBox="0 0 400 300" fill="none" xmlns="http://www.w3.org/2000/svg">
  <rect width="400" height="300" fill="#E5E7EB"/>
  <path d="M200 150C200 164.912 187.85 177 172.5 177C157.15 177 145 164.912 145 150C145 135.088 157.15 123 172.5 123C187.85 123 200 135.088 200 150Z" fill="#9CA3AF"/>
  <path d="M172.5 163C184.926 163 195 152.85 195 140.333C195 127.815 184.926 117.667 172.5 117.667C160.074 117.667 150 127.815 150 140.333C150 152.85 160.074 163 172.5 163Z" fill="#6B7280"/>
  <path d="M172.5 177C200.5 177 200 177 200 177V200C200 211.046 191.046 220 180 220H165C153.954 220 145 211.046 145 200V177C145 177 144.5 177 172.5 177Z" fill="#6B7280"/>
  <rect x="100" y="70" width="200" height="20" rx="10" fill="#D1D5DB"/>
  <rect x="100" y="230" width="200" height="10" rx="5" fill="#D1D5DB"/>
</svg>
